<svg id="Layer_1" data-name="Layer 1" xmlns="http://www.w3.org/2000/svg" viewBox="0 0 129.04 112.94"><defs><style>.cls-1{fill:none;stroke:#000;stroke-miterlimit:10;stroke-width:0.31px;}</style></defs><path class="cls-1" d="M92.32,70.35l-18.62-1,5.78-16.37-7.43-7.41L85.21,28.68m55.3,38.62M62.78,94.64,20.52,62.58l5.93,19L42.5,92.5l9.81-4,7.55,7.2,11.69,7.41,14,33.39L99.24,99.68h27l7-9L137,86l7.13-4.38,5.11-18.78L126.53,38.32,95.67,24.13l-40.1,1.59L32.55,43l-11,17.37s4,1.62,6.06-1M59.46,30.84V45.68H37.24l-5,19m69.08,20H69.24L46,59.77,32.24,73.68m79,13,6-8,4.94-15.33-9.94,3.33L101.32,46.42l6.84-2.66,5.08,9.92,12.48-4.62M75.77,102.55l9.47,17.13-3-2.73,3,10.73,5-16m21-19-20,3v10m-23-13,11-2,6,7m-24-33,9-8-7.46-3.25L51.24,55.68m17-20.12-3,11.12m35-11.12L87.44,46.68l7.8,15,4-1.91,7,15.91m21.55-16.62,12.45,5.62L121,93" transform="translate(-20.37 -23.97)"/></svg>